<svg xmlns="http://www.w3.org/2000/svg" viewBox="0 0 750 500"><g id="freepik--Shadow--inject-34"><path d="M703.71139,444.1678c0,3.3867-147.8662,6.1322-330.26849,6.1322s-330.26849-2.7455-330.26849-6.1322,147.8662-6.1323,330.26849-6.1323,330.26849,2.7455,330.26849,6.1323Z" style="fill:#f5f5f5;"></path></g><g id="freepik--Bus--inject-34"><g><g><rect x="380.42439" y="356.2049" width="79.66061" height="63.3973" transform="translate(840.50939 775.8071) rotate(180)" style="fill:#01619D;"></rect><rect x="380.42439" y="356.2049" width="79.66061" height="63.3973" transform="translate(840.50939 775.8071) rotate(180)" style="opacity:.5;"></rect></g><g><ellipse cx="428.15" cy="408.549" rx="22.766" ry="35.6187" style="fill:#263238;"></ellipse><path d="M425.113,408.549c0,12.2948-3.01881,29.2178,3.037,35.6187h19.729c12.57329,0,22.766-15.947,22.766-35.6187s-10.19271-35.6187-22.766-35.6187c-5.40811,0-19.09021-.6459-19.729,0-5.85841,5.9232-3.037,24.4084-3.037,35.6187Z" style="fill:#263238;"></path><ellipse cx="426.56672" cy="407.45872" rx="11.60857" ry="18.16218" style="fill:#fff; opacity:.3;"></ellipse></g><g><rect x="118.9188" y="356.2049" width="79.6606" height="63.3973" transform="translate(317.4982 775.8071) rotate(180)" style="fill:#01619D;"></rect><rect x="118.9188" y="356.2049" width="79.6606" height="63.3973" transform="translate(317.4982 775.8071) rotate(180)" style="opacity:.5;"></rect></g><g><ellipse cx="166.64438" cy="408.549" rx="22.76602" ry="35.6187" style="fill:#263238;"></ellipse><path d="M163.6073,408.549c0,12.2948-3.0187,29.2178,3.0371,35.6187h19.729c12.5733,0,22.766-15.947,22.766-35.6187s-10.1927-35.6187-22.766-35.6187c-5.4082,0-19.0902-.6459-19.729,0-5.8584,5.9232-3.0371,24.4084-3.0371,35.6187Z" style="fill:#263238;"></path><ellipse cx="165.0611" cy="407.45872" rx="11.6085" ry="18.16218" style="fill:#fff; opacity:.3;"></ellipse></g><g><ellipse cx="270.77177" cy="408.549" rx="22.76602" ry="35.6187" style="fill:#263238;"></ellipse><path d="M267.7347,408.549c0,12.2948-3.0187,29.2178,3.0371,35.6187h19.729c12.5733,0,22.766-15.947,22.766-35.6187s-10.1927-35.6187-22.766-35.6187c-5.4082,0-19.0902-.6459-19.729,0-5.8584,5.9232-3.0371,24.4084-3.0371,35.6187Z" style="fill:#263238;"></path><ellipse cx="269.1885" cy="407.45872" rx="11.6085" ry="18.16218" style="fill:#fff; opacity:.3;"></ellipse></g><path d="M290.5008,372.9303c-5.4082,0-19.0902-.6459-19.729,0-12.5734,0-22.7661,15.947-22.7661,35.6187s10.1927,35.6187,22.7661,35.6187h19.729c12.5733,0,22.766-15.947,22.766-35.6187s-10.1927-35.6187-22.766-35.6187Z" style="opacity:.3;"></path><g><ellipse cx="567.98659" cy="408.549" rx="22.766" ry="35.6187" style="fill:#263238;"></ellipse><path d="M564.94959,408.549c0,12.2948-3.0188,29.2178,3.037,35.6187h19.729c12.5733,0,22.766-15.947,22.766-35.6187s-10.1927-35.6187-22.766-35.6187c-5.4081,0-19.0902-.6459-19.729,0-5.8584,5.9232-3.037,24.4084-3.037,35.6187Z" style="fill:#263238;"></path><ellipse cx="566.40331" cy="407.45872" rx="11.60857" ry="18.16218" style="fill:#fff; opacity:.3;"></ellipse></g><path d="M587.87639,372.9303c-5.4082,0-19.0902-.6459-19.729,0-12.57339,0-22.7661,15.9471-22.7661,35.6187s10.19271,35.6187,22.7661,35.6187h19.729c12.5733,0,22.766-15.947,22.766-35.6187s-10.1927-35.6187-22.766-35.6187Z" style="opacity:.3;"></path><path d="M64.3708,214.23l613.94159,.5284c11.1525,.0096,18.3645,1.3018,20.5613,12.2847,7.5428,37.7117,26.2445,126.6463,20.934,163.9859l-1.4854,7.2721c-1.1451,12.0775-11.2437,21.3011-23.3219,21.3011h-242.08099c1.4547-4.8312,2.2674-10.165,2.2674-15.7776,0-21.7343-12.1049-39.3535-27.03679-39.3535s-27.03681,17.6192-27.03681,39.3535c0,5.6126,.8127,10.9464,2.2674,15.7776H188.6241c1.4546-4.8312,2.2673-10.165,2.2673-15.7776,0-21.7343-12.1048-39.3535-27.0368-39.3535s-27.0368,17.6192-27.0368,39.3535c0,5.6126,.8127,10.9464,2.2674,15.7776H64.3507c-12.9387,0-23.4275-10.5358-23.4275-23.5322V228.2088c0-13.0044,10.501-13.99,23.4476-13.9788Z" style="fill:#01619D;"></path><path d="M40.9232,376.7471h11.3053v30.4242h-8.5383s-2.767-4.597-2.767-10.2677v-20.1565Z" style="fill:#fff; opacity:.5;"></path><path d="M586.63669,214.6795l-11.51869-17.351c-1.12451-1.6938-3.02241-2.7119-5.05551-2.7119H205.1888c-2.4195,0-4.6405,1.3384-5.7709,3.4776l-8.5265,16.1358,395.74529,.4495Z" style="fill:#01619D;"></path><rect x="366.52859" y="395.1861" width="14.7875" height="6.0957" rx="3.0478" ry="3.0478" transform="translate(747.84469 796.4679) rotate(180)" style="fill:#fff;"></rect><path d="M215.7386,401.2295h8.692c1.6832,0,3.0478-1.3646,3.0478-3.0478h0c0-1.6833-1.3646-3.0479-3.0478-3.0479h-8.692c-1.6832,0-3.0478,1.3646-3.0478,3.0479h0c0,1.6832,1.3646,3.0478,3.0478,3.0478Z" style="fill:#fff;"></path><rect x="63.5918" y="395.1861" width="14.7875" height="6.0957" rx="3.0478" ry="3.0478" transform="translate(141.9711 796.4679) rotate(180)" style="fill:#fff;"></rect><rect x="189.41016" y="406.6709" width="211.80859" height="1" style="fill:#263238;"></rect><rect x="43.69043" y="406.6709" width="93.81787" height="1" style="fill:#263238;"></rect><rect x="120.12207" y="344.4541" width="1" height="63.00488" style="fill:#263238;"></rect><rect x="58.50342" y="316.29395" width="1" height="90.87695" style="fill:#263238;"></rect><rect x="202.12402" y="345.97266" width="1" height="60.26953" style="fill:#263238;"></rect><rect x="388.48926" y="347.25488" width="1" height="59.91602" style="fill:#263238;"></rect><rect x="209.1394" y="353.3295" width="173.56579" height="35.9671" transform="translate(591.84459 742.6261) rotate(180)" style="opacity:.2;"></rect><path d="M466.76379,194.6166h103.4824c2.0331,0,3.9961,1.3928,5.1205,3.0866l11.27,16.9763-131.9561-.4284,12.0832-19.6345Z" style="fill:#fff; opacity:.3;"></path><g><rect x="465.229" y="224.0934" width="61.22809" height="183.3653" transform="translate(991.68609 631.5521) rotate(180)" style="fill:#263238;"></rect><rect x="469.04869" y="236.9211" width="53.5295" height="136.5854" transform="translate(991.62688 610.4276) rotate(180)" style="fill:#fff; opacity:.3;"></rect><path d="M469.04869,241.4473l53.5295,23.8781v39.8884c-1.2466,1.2465-53.5295-26.7455-53.5295-26.7455v-37.021Z" style="fill:#fff; opacity:.3;"></path><polygon points="469.04869 287.4284 522.58309 313.1372 522.60779 322.2954 469.07839 295.55 469.04869 287.4284" style="fill:#fff; opacity:.3;"></polygon><path d="M504.43219,401.2295h8.692c1.6832,0,3.04781-1.3646,3.04781-3.0478h0c0-1.6833-1.36461-3.0479-3.04781-3.0479h-8.692c-1.68319,0-3.0478,1.3646-3.0478,3.0479h0c0,1.6832,1.36461,3.0478,3.0478,3.0478Z" style="fill:#fff;"></path><rect x="493.53429" y="235.4067" width="4.0651" height="139.6141" transform="translate(991.13368 610.4275) rotate(180)" style="fill:#263238;"></rect></g><path d="M466.76379,194.6166l-12.0832,19.6345H190.8914l8.2716-15.8682c1.2068-2.3151,3.5998-3.768,6.2105-3.7708" style="opacity:.2;"></path><polygon points="586.63669 214.6795 191.0805 214.6354 193.2295 210.3632 583.74829 210.3632 586.63669 214.6795" style="opacity:.2;"></polygon><g><rect x="435.83283" y="204.49317" width="8.90173" height=".49951" transform="translate(29.72779 463.9981) rotate(-57.21093)" style="fill:#263238;"></rect><rect x="432.1895" y="204.49317" width="8.90226" height=".49951" transform="translate(28.05762 460.93548) rotate(-57.21093)" style="fill:#263238;"></rect><rect x="428.54692" y="204.49317" width="8.90226" height=".49951" transform="translate(26.38767 457.87327) rotate(-57.21093)" style="fill:#263238;"></rect><rect x="424.90434" y="204.49317" width="8.90226" height=".49951" transform="translate(24.71773 454.81107) rotate(-57.21093)" style="fill:#263238;"></rect><rect x="421.26176" y="204.49317" width="8.90226" height=".49951" transform="translate(23.04778 451.74886) rotate(-57.21093)" style="fill:#263238;"></rect></g><g><rect x="345.41448" y="204.39803" width="8.90199" height=".50033" transform="translate(-11.45105 388.32481) rotate(-57.27149)" style="fill:#263238;"></rect><rect x="341.7719" y="204.39803" width="8.90199" height=".50033" transform="translate(-13.12424 385.26052) rotate(-57.27149)" style="fill:#263238;"></rect><rect x="338.12933" y="204.39803" width="8.90199" height=".50033" transform="translate(-14.79742 382.19623) rotate(-57.27149)" style="fill:#263238;"></rect><rect x="334.48675" y="204.39803" width="8.90199" height=".50033" transform="translate(-16.47061 379.13195) rotate(-57.27149)" style="fill:#263238;"></rect><rect x="330.84417" y="204.39803" width="8.90199" height=".50033" transform="translate(-18.14379 376.06766) rotate(-57.27149)" style="fill:#263238;"></rect></g><g><rect x="254.99689" y="204.49275" width="8.90173" height=".50033" transform="translate(-53.06331 312.30515) rotate(-57.27149)" style="fill:#263238;"></rect><rect x="251.35393" y="204.49275" width="8.90199" height=".50033" transform="translate(-54.73661 309.24065) rotate(-57.27149)" style="fill:#263238;"></rect><rect x="247.71136" y="204.49275" width="8.90199" height=".50033" transform="translate(-56.4098 306.17636) rotate(-57.27149)" style="fill:#263238;"></rect><rect x="244.06878" y="204.49275" width="8.90199" height=".50033" transform="translate(-58.08298 303.11207) rotate(-57.27149)" style="fill:#263238;"></rect><rect x="240.4262" y="204.49275" width="8.90199" height=".50033" transform="translate(-59.75617 300.04779) rotate(-57.27149)" style="fill:#263238;"></rect></g><g><polygon points="454.86729 346.7041 120.53687 346.7041 99.1134 316.9161 48.373 316.129 48.373 224.0934 454.86729 224.0934 454.86729 346.7041" style="fill:#263238;"></polygon><rect x="392.31649" y="235.5641" width="55.8764" height="97.0137" transform="translate(840.50939 568.1419) rotate(180)" style="fill:#fff; opacity:.3;"></rect><path d="M392.40479,238.0899l55.6999,23.8781v39.8883c-1.2971,1.2466-55.6999-26.7454-55.6999-26.7454v-37.021Z" style="fill:#fff; opacity:.3;"></path><polygon points="392.38929 284.071 448.09439 309.7798 448.12009 318.938 392.42019 292.1926 392.38929 284.071" style="fill:#fff; opacity:.3;"></polygon><polygon points="126.61586 332.4204 198.5794 332.4204 198.5794 235.4067 108.5763 235.4067 108.0004 308.4275 126.61586 332.4204" style="fill:#fff; opacity:.3;"></polygon><rect x="211.3837" y="235.4067" width="169.44939" height="97.0137" transform="translate(592.21679 567.8271) rotate(180)" style="fill:#fff; opacity:.3;"></rect><rect x="54.3845" y="235.4067" width="42.0509" height="69.7281" transform="translate(150.8199 540.5415) rotate(180)" style="fill:#fff; opacity:.3;"></rect><polygon points="380.83309 281.0162 268.8213 235.4067 211.3837 235.4067 211.3837 253.7153 380.83309 322.2954 380.83309 281.0162" style="fill:#fff; opacity:.3;"></polygon><polyline points="198.5794 293.1926 108.3911 258.8869 108.5089 243.9493 198.5794 278.4683 198.5794 289.4038" style="fill:#fff; opacity:.3;"></polyline><polygon points="108.5089 264.9091 198.5794 299.4282 198.5794 305.1348 108.391 270.2708 108.5089 264.9091" style="fill:#fff; opacity:.3;"></polygon><rect x="51.584" y="249.5643" width="398.68759" height="3.7163" transform="translate(501.85559 502.8449) rotate(180)" style="fill:#263238;"></rect></g><g><path d="M698.87369,227.0431c7.5428,37.7117,26.2445,126.6463,20.934,163.9859l-1.4854,7.2721c-1.1451,12.0775-11.2437,21.3011-23.3219,21.3011h-153.2085l-10.7433-204.9668,147.2638,.123c11.1525,.0096,18.3645,1.3018,20.5613,12.2847Z" style="fill:#fff; opacity:.3;"></path><path d="M715.64829,375.3007s-2.0531,13.5816-12.3182,15.0029c-10.26509,1.4213-36.4807,.3158-36.4807,.3158l1.9738-5.0439c2.2461-5.7401,7.7324-9.5588,13.8953-9.6717l32.9298-.6031Z" style="fill:#fff; opacity:.4;"></path><path d="M562.77439,375.3007s2.053,13.5816,12.3182,15.0029c10.2651,1.4213,36.4806,.3158,36.4806,.3158l-2.2161-5.6634c-2.0994-5.3652-7.2274-8.9345-12.9878-9.04l-33.5949-.6153Z" style="fill:#fff; opacity:.4;"></path><rect x="619.60419" y="406.4762" width="45.0846" height="13.126" transform="translate(1284.29297 826.0784) rotate(180)" style="fill:#263238;"></rect><path d="M698.46529,411.9277c0,1.9448,1.1744,3.5214,2.6231,3.5214,1.44861,0,2.623-1.5766,2.623-3.5214s-1.17439-3.5214-2.623-3.5214c-1.4487,0-2.6231,1.5766-2.6231,3.5214Z" style="fill:#fff;"></path><path d="M690.63669,411.9277c0,1.2969,.7832,2.3483,1.74931,2.3483,.966,0,1.74919-1.0514,1.74919-2.3483s-.78319-2.3483-1.74919-2.3483c-.96611,0-1.74931,1.0514-1.74931,2.3483Z" style="fill:#fff;"></path><path d="M675.37891,419.60254h-1c0-8.14648,6.62695-14.77344,14.77246-14.77344h27.38477v1h-27.38477c-7.59375,0-13.77246,6.17871-13.77246,13.77344Z" style="fill:#263238;"></path><path d="M577.88309,411.9277c0,1.9448-1.1744,3.5214-2.62309,3.5214s-2.623-1.5766-2.623-3.5214,1.17429-3.5214,2.623-3.5214,2.62309,1.5766,2.62309,3.5214Z" style="fill:#fff;"></path><ellipse cx="583.96239" cy="411.9277" rx="1.7492" ry="2.3483" style="fill:#fff;"></ellipse><path d="M601.96973,419.60254h-1c0-7.59473-6.17871-13.77344-13.77344-13.77344h-46.21484v-1h46.21484c8.14648,0,14.77344,6.62695,14.77344,14.77344Z" style="fill:#263238;"></path><path d="M694.95529,383.0992c0,3.5981,2.9168,6.5149,6.5149,6.5149s6.515-2.9168,6.515-6.5149-2.9169-6.515-6.515-6.515-6.5149,2.9169-6.5149,6.515Z" style="fill:#fff; opacity:.4;"></path><path d="M574.12589,383.0992c0,3.5981,2.9169,6.5149,6.515,6.5149s6.5149-2.9168,6.5149-6.5149-2.91679-6.515-6.5149-6.515-6.515,2.9169-6.515,6.515Z" style="fill:#fff; opacity:.4;"></path><g><path d="M691.54829,224.0934l20.127,119.2429c1.0045,5.9516-3.5826,11.378-9.6185,11.378h-129.8337c-7.6519,0-14.1167-5.6756-15.1074-13.2631l-15.3238-117.3578h149.7564Z" style="fill:#263238;"></path><polygon points="707.98519 332.4204 693.07849 243.5451 545.91919 243.5451 558.33709 332.8636 707.98519 332.4204" style="fill:#fff; opacity:.3;"></polygon><polygon points="598.73559 243.5451 700.09849 285.3988 704.79359 313.3915 545.91919 243.5451 598.73559 243.5451" style="fill:#fff; opacity:.3;"></polygon><polygon points="547.36779 253.9649 706.72719 323.6979 707.98519 332.4204 548.70409 263.5763 547.36779 253.9649" style="fill:#fff; opacity:.3;"></polygon><polygon points="547.22649 240.221 692.01539 240.221 689.29639 227.9091 545.91919 227.9091 547.22649 240.221" style="opacity:.5;"></polygon><rect x="596.85289" y="232.647" width="72.704" height="3.8768" transform="translate(1266.40977 469.1708) rotate(180)" style="fill:#fff;"></rect><rect x="588.05859" y="230.6901" width="4.9551" height="7.7906" transform="translate(1181.07228 469.1708) rotate(180)" style="fill:#fff;"></rect><rect x="582.244" y="230.6901" width="4.74529" height="7.7906" transform="translate(1169.23329 469.1708) rotate(180)" style="fill:#fff;"></rect></g><path d="M672.2998,367.23535c-53.38574,0-132.08984-.01562-133.2793-.01562v-1c1.79004,.00098,178.98242,.03516,181.52734,0l.01367,1c-.85547,.01172-21.34277,.01562-48.26172,.01562Z" style="fill:#263238;"></path></g><g><g><path d="M722.79518,292.304h0c5.1374,0,9.3021-4.1647,9.3021-9.3021v-32.7403c0-5.1374-4.1647-9.3021-9.3021-9.3021h0c-5.1374,0-9.3021,4.1647-9.3021,9.3021v32.7403c0,5.1374,4.1647,9.3021,9.3021,9.3021Z" style="fill:#01619D;"></path><path d="M725.01548,244.1299s-2.4156-8.7564-8.6054-9.6623c-6.1899-.9058-17.2109,0-17.2109,0v4.6299s12.6817-.5033,14.7953,0c2.1136,.5032,4.5292,6.995,4.5292,6.995l6.4918-1.9626Z" style="fill:#01619D;"></path></g><g style="opacity:.3;"><path d="M722.79518,292.304h0c5.1374,0,9.3021-4.1647,9.3021-9.3021v-32.7403c0-5.1374-4.1647-9.3021-9.3021-9.3021h0c-5.1374,0-9.3021,4.1647-9.3021,9.3021v32.7403c0,5.1374,4.1647,9.3021,9.3021,9.3021Z" style="fill:#fff;"></path><path d="M725.01548,244.1299s-2.4156-8.7564-8.6054-9.6623c-6.1899-.9058-17.2109,0-17.2109,0v4.6299s12.6817-.5033,14.7953,0c2.1136,.5032,4.5292,6.995,4.5292,6.995l6.4918-1.9626Z" style="fill:#fff;"></path></g></g><g><g><path d="M565.38789,295.1545h0c5.1374,0,9.30211-4.1647,9.30211-9.3021v-32.7403c0-5.1375-4.16471-9.3022-9.30211-9.3022h0c-5.1374,0-9.3021,4.1647-9.3021,9.3022v32.7403c0,5.1374,4.1647,9.3021,9.3021,9.3021Z" style="fill:#01619D;"></path><path d="M567.60819,246.9804s-2.4156-8.7564-8.6054-9.6623c-6.1899-.9058-17.2109,0-17.2109,0v4.6299s12.6817-.5033,14.7953,0c2.1136,.5032,4.5292,6.995,4.5292,6.995l6.4918-1.9626Z" style="fill:#01619D;"></path></g><g style="opacity:.3;"><path d="M565.38789,295.1545h0c5.1374,0,9.30211-4.1647,9.30211-9.3021v-32.7403c0-5.1375-4.16471-9.3022-9.30211-9.3022h0c-5.1374,0-9.3021,4.1647-9.3021,9.3022v32.7403c0,5.1374,4.1647,9.3021,9.3021,9.3021Z" style="fill:#fff;"></path><path d="M567.60819,246.9804s-2.4156-8.7564-8.6054-9.6623c-6.1899-.9058-17.2109,0-17.2109,0v4.6299s12.6817-.5033,14.7953,0c2.1136,.5032,4.5292,6.995,4.5292,6.995l6.4918-1.9626Z" style="fill:#fff;"></path></g></g></g></g></svg>
