<svg id="Layer_1" data-name="Layer 1" xmlns="http://www.w3.org/2000/svg" viewBox="0 0 67.1 50.4"><defs><style>.cls-1{fill:#00446b;}</style></defs><path class="cls-1" d="M67.1,6.78a5,5,0,0,0-1.48-3.6,5.16,5.16,0,0,0-6.29-.7l-.13.08a4.37,4.37,0,0,0-.74.61l-12,12-.08.13c-2.79,2.83-4.09,5.68-3.86,8.46a6,6,0,0,0,.17,1V25a9.12,9.12,0,0,0,.28.93l.06.12c.1.26.22.52.34.76l.09.18a7,7,0,0,0,.44.75l.08.13c.14.21.3.41.44.6l.07.09c.16.2.31.39.48.57l.08.09.42.45.38.35L65.62,10.36A5,5,0,0,0,67.1,6.78Z"/><path class="cls-1" d="M55.79,41.86l-.14-.15L45.45,31.53a11.85,11.85,0,0,1-4.29-6.77c0-.28-.09-.56-.12-.85a9.54,9.54,0,0,1,.47-3.79L30.58,31l17.9,17.88a5.05,5.05,0,0,0,7.15,0l0,0A5.09,5.09,0,0,0,55.79,41.86ZM20.65,35.35a.67.67,0,0,1,.09-.14c.35-.36.68-.71,1-1.06l.22-.3c.09-.09.43-.51.62-.77s.18-.3.28-.44.28-.41.41-.62a3.17,3.17,0,0,0,.21-.41L23.8,31a3.31,3.31,0,0,0,.14-.36c0-.12.2-.46.27-.7a1.89,1.89,0,0,0,.09-.34q.11-.35.18-.72a1.71,1.71,0,0,0,0-.32c0-.25.09-.49.1-.72s0-.26,0-.38,0-.45,0-.67a8.48,8.48,0,0,0-.15-1V25.5a7,7,0,0,0-.27-.89l-.1-.21c-.08-.22-.19-.44-.28-.64l-.14-.28c-.13-.22-.25-.44-.39-.64a3.28,3.28,0,0,0-.2-.31l-.25-.35-.31-.4c-.09-.11-.18-.22-.28-.32L22,21.18,21.8,21l-.37-.35-.13-.13-.13-.13L1.48,40.11A5,5,0,0,0,0,43.64a5.11,5.11,0,0,0,1.48,3.6,5.19,5.19,0,0,0,6.29.7.59.59,0,0,1,.17-.1,6,6,0,0,0,.73-.6Z"/><path class="cls-1" d="M21.65,18.94a11.76,11.76,0,0,1,4.28,6.8c0,.27.08.56.11.86a9.44,9.44,0,0,1-.47,3.77L36.5,19.44,18.62,1.55a5.08,5.08,0,0,0-7.31,7.06.44.44,0,0,1,.16.17Z"/></svg>