<svg id="Layer_1" data-name="Layer 1" xmlns="http://www.w3.org/2000/svg" viewBox="0 0 337.21 87.53">
    <defs>
        <style>
            .cls-1 {
                fill: #00446b;
            }

            .cls-2 {
                fill: #00446b;
            }
        </style>
    </defs>
    <path class="cls-1"
        d="M162.9,17.58a5,5,0,0,0-1.49-3.6,5.16,5.16,0,0,0-6.29-.7l-.13.08a5.33,5.33,0,0,0-.74.61l-12,12a.51.51,0,0,1-.09.13c-2.78,2.83-4.09,5.68-3.85,8.46a6,6,0,0,0,.16,1v.22c.08.31.17.62.28.93l.06.12c.11.26.23.51.34.76l.1.18a6.93,6.93,0,0,0,.43.75l.08.13.44.6.07.09q.24.3.48.57l.08.09.43.45.37.35,19.78-19.67A5,5,0,0,0,162.9,17.58Z" />
    <path class="cls-1"
        d="M151.58,52.66l-.14-.15L141.25,42.33a11.87,11.87,0,0,1-4.3-6.77c0-.28-.09-.56-.11-.86a9.51,9.51,0,0,1,.47-3.78L126.37,41.83l17.9,17.88a5.05,5.05,0,0,0,7.15,0l0,0A5.08,5.08,0,0,0,151.58,52.66Zm-35.14-6.51a.71.71,0,0,1,.1-.14c.34-.36.67-.71,1-1.06l.23-.3c.08-.09.42-.51.61-.77a4.33,4.33,0,0,0,.28-.44c.1-.14.28-.41.41-.62a3.17,3.17,0,0,0,.21-.41l.35-.65c.05-.12.09-.25.14-.36s.2-.46.27-.7a3.38,3.38,0,0,0,.08-.34c.07-.23.14-.47.19-.72v-.33c0-.24.08-.48.09-.71s0-.26,0-.38,0-.45,0-.67a6.83,6.83,0,0,0-.15-1V36.3a7,7,0,0,0-.27-.89l-.1-.21a6.18,6.18,0,0,0-.28-.64l-.14-.28c-.13-.22-.25-.45-.39-.65a2.61,2.61,0,0,0-.2-.3L118.6,33l-.32-.4-.27-.32-.25-.28-.16-.18-.38-.35-.13-.13-.13-.13L97.27,50.91a5,5,0,0,0-1.48,3.53A5.15,5.15,0,0,0,97.27,58a5.21,5.21,0,0,0,6.3.7.44.44,0,0,1,.16-.1,5.3,5.3,0,0,0,.73-.6Z" />
    <path class="cls-1"
        d="M117.44,29.74a11.76,11.76,0,0,1,4.28,6.8c0,.27.09.56.11.86a9.1,9.1,0,0,1-.47,3.77L132.3,30.24,114.41,12.35a5.07,5.07,0,0,0-7.3,7,.65.65,0,0,1,.15.18Z" />
    <path class="cls-2"
        d="M43.63,10.8A3.67,3.67,0,0,1,46.44,12a4.05,4.05,0,0,1,1.08,2.88v42a4.3,4.3,0,0,1-4.39,4.39,6.17,6.17,0,0,1-1.91-.32,3.39,3.39,0,0,1-1.48-.9L11.45,24.05l1.87-1.15V57.17a4,4,0,0,1-1.12,2.88A3.85,3.85,0,0,1,9.29,61.2a3.67,3.67,0,0,1-2.81-1.15A4.05,4.05,0,0,1,5.4,57.17v-42A4.3,4.3,0,0,1,9.79,10.8a5.94,5.94,0,0,1,2.09.4,3,3,0,0,1,1.58,1.18l27.44,35-1.23.86V14.83A4.05,4.05,0,0,1,40.75,12,3.75,3.75,0,0,1,43.63,10.8Z" />
    <path class="cls-2"
        d="M75.74,61.92a21.09,21.09,0,0,1-10.62-2.56,17.67,17.67,0,0,1-6.91-6.94,20.28,20.28,0,0,1-2.41-9.94,21.75,21.75,0,0,1,2.63-11,18.54,18.54,0,0,1,6.87-7,17.76,17.76,0,0,1,9-2.45,16.34,16.34,0,0,1,7,1.51,19.13,19.13,0,0,1,5.8,4.14,20,20,0,0,1,4,6.09A18.37,18.37,0,0,1,92.52,41a3.69,3.69,0,0,1-1.37,2.81,4.57,4.57,0,0,1-3,1.08H60.62l-2.16-7.2H84.89L83.3,39.17v-2a6.56,6.56,0,0,0-1.47-3.74,9.82,9.82,0,0,0-3.31-2.63,9.46,9.46,0,0,0-4.22-1,13.45,13.45,0,0,0-4,.58A7.67,7.67,0,0,0,67,32.4a9.5,9.5,0,0,0-2.16,3.67,18.16,18.16,0,0,0-.79,5.83,12.58,12.58,0,0,0,1.62,6.59A11.06,11.06,0,0,0,75.31,54a17.14,17.14,0,0,0,4.25-.43,9.46,9.46,0,0,0,2.55-1c.65-.4,1.24-.75,1.77-1a5.51,5.51,0,0,1,2.45-.65A3.62,3.62,0,0,1,90,54.43,4.49,4.49,0,0,1,88,58a16.63,16.63,0,0,1-5.25,2.77A21,21,0,0,1,75.74,61.92Z" />
    <path class="cls-2"
        d="M172.83,61.92a4.42,4.42,0,0,1-3.27-1.26,4.24,4.24,0,0,1-1.26-3.13V15.91a4.3,4.3,0,0,1,4.39-4.39h23.4a4.39,4.39,0,0,1,3.13,1.19,4,4,0,0,1,1.26,3.06,3.79,3.79,0,0,1-1.26,2.8,4.3,4.3,0,0,1-3.13,1.23H176.65l.65-.86V33.41l-.51-.94h16.06A4.39,4.39,0,0,1,196,33.66a4,4,0,0,1,1.26,3.06A3.82,3.82,0,0,1,196,39.53a4.33,4.33,0,0,1-3.13,1.22h-16.2l.65-.65V57.53A4.16,4.16,0,0,1,176,60.66,4.43,4.43,0,0,1,172.83,61.92Z" />
    <path class="cls-2"
        d="M217.4,57.53A4.3,4.3,0,0,1,213,61.92a4.07,4.07,0,0,1-3-1.26,4.33,4.33,0,0,1-1.22-3.13V13a4.3,4.3,0,0,1,4.39-4.39,4,4,0,0,1,3.06,1.26A4.39,4.39,0,0,1,217.4,13Z" />
    <path class="cls-2"
        d="M245.62,62.64A21.09,21.09,0,0,1,235,60.08a17.63,17.63,0,0,1-6.91-6.95,20.22,20.22,0,0,1-2.41-9.93,21.75,21.75,0,0,1,2.63-11.05,18.54,18.54,0,0,1,6.87-7,17.81,17.81,0,0,1,9-2.45,16.34,16.34,0,0,1,6.95,1.51,19,19,0,0,1,5.8,4.14,20,20,0,0,1,4,6.09,18.37,18.37,0,0,1,1.48,7.34A3.69,3.69,0,0,1,261,44.57a4.57,4.57,0,0,1-3,1.08H230.5l-2.16-7.2h26.43l-1.59,1.44v-2a6.49,6.49,0,0,0-1.47-3.74,9.73,9.73,0,0,0-3.31-2.63,9.43,9.43,0,0,0-4.22-1,13.77,13.77,0,0,0-4,.57,7.79,7.79,0,0,0-3.24,1.95,9.5,9.5,0,0,0-2.16,3.67,18.16,18.16,0,0,0-.79,5.83,12.6,12.6,0,0,0,1.62,6.59,11.11,11.11,0,0,0,9.61,5.51,17.14,17.14,0,0,0,4.25-.43,9.54,9.54,0,0,0,2.56-1c.64-.4,1.23-.75,1.76-1a5.51,5.51,0,0,1,2.45-.65,3.62,3.62,0,0,1,3.67,3.6,4.49,4.49,0,0,1-2,3.53,16.52,16.52,0,0,1-5.25,2.77A21,21,0,0,1,245.62,62.64Z" />
    <path class="cls-2"
        d="M288.1,62.64a21.09,21.09,0,0,1-10.62-2.56,17.63,17.63,0,0,1-6.91-6.95,20.22,20.22,0,0,1-2.41-9.93,21.75,21.75,0,0,1,2.63-11.05,18.54,18.54,0,0,1,6.87-7,17.81,17.81,0,0,1,9-2.45,16.34,16.34,0,0,1,6.95,1.51,19.13,19.13,0,0,1,5.8,4.14,20,20,0,0,1,4,6.09,18.37,18.37,0,0,1,1.48,7.34,3.69,3.69,0,0,1-1.37,2.81,4.57,4.57,0,0,1-3,1.08H273l-2.16-7.2h26.43l-1.59,1.44v-2a6.49,6.49,0,0,0-1.47-3.74,9.73,9.73,0,0,0-3.31-2.63,9.46,9.46,0,0,0-4.22-1,13.77,13.77,0,0,0-4,.57,7.79,7.79,0,0,0-3.24,1.95,9.5,9.5,0,0,0-2.16,3.67,18.16,18.16,0,0,0-.79,5.83,12.6,12.6,0,0,0,1.62,6.59,11.11,11.11,0,0,0,9.61,5.51,17.14,17.14,0,0,0,4.25-.43,9.69,9.69,0,0,0,2.56-1c.64-.4,1.23-.75,1.76-1a5.51,5.51,0,0,1,2.45-.65,3.62,3.62,0,0,1,3.67,3.6,4.49,4.49,0,0,1-2,3.53,16.63,16.63,0,0,1-5.25,2.77A21,21,0,0,1,288.1,62.64Z" />
    <path class="cls-2"
        d="M312.87,24.12h17.06a3.87,3.87,0,0,1,2.88,1.15A3.91,3.91,0,0,1,334,28.15a3.68,3.68,0,0,1-1.16,2.77A3.93,3.93,0,0,1,329.93,32H312.87a3.93,3.93,0,0,1-4-4A3.71,3.71,0,0,1,310,25.23,4,4,0,0,1,312.87,24.12Zm7.71-9a4,4,0,0,1,3.05,1.26,4.35,4.35,0,0,1,1.19,3.13v32a3.12,3.12,0,0,0,.4,1.66,2.23,2.23,0,0,0,1.08.93,3.61,3.61,0,0,0,1.47.29,3.93,3.93,0,0,0,1.59-.32,3.92,3.92,0,0,1,1.65-.33,2.43,2.43,0,0,1,1.84.94,3.88,3.88,0,0,1-1.37,5.9,9,9,0,0,1-4.71,1.3,24.41,24.41,0,0,1-3.35-.25A9,9,0,0,1,320,60.44a7.5,7.5,0,0,1-2.7-3,11.89,11.89,0,0,1-1.08-5.55V19.51a4.31,4.31,0,0,1,4.4-4.39Z" />
    <path class="cls-2"
        d="M122.27,81.48V67.71h3.44a7.2,7.2,0,0,1,3.57.8,5.15,5.15,0,0,1,2.2,2.32,8.3,8.3,0,0,1,.75,3.7,8.59,8.59,0,0,1-.75,3.75,5.31,5.31,0,0,1-2.17,2.39,7,7,0,0,1-3.51.81ZM124,80.06h1.58a5,5,0,0,0,2.69-.67,4,4,0,0,0,1.59-1.87,7.58,7.58,0,0,0,.53-3,7.46,7.46,0,0,0-.53-2.94,3.77,3.77,0,0,0-1.59-1.83,5.25,5.25,0,0,0-2.69-.62H124Z" />
    <path class="cls-2"
        d="M137,81.48V76.15l-4.14-8.44h1.87l1.79,3.88c.21.51.42,1,.64,1.49s.44,1,.68,1.52h.09l.72-1.52c.23-.49.45-1,.66-1.49l1.77-3.88h1.82l-4.16,8.44v5.33Z" />
    <path class="cls-2"
        d="M144.76,81.48V67.71h1.91l4.9,8.57c.26.46.51.94.75,1.43s.48,1,.72,1.53h.08c0-.72-.09-1.45-.15-2.2s-.08-1.47-.08-2.17V67.71h1.68V81.48h-1.91l-4.89-8.56c-.26-.47-.51-1-.77-1.45s-.5-1-.73-1.51h-.08c.06.68.11,1.39.16,2.12s.07,1.46.07,2.2v7.2Z" />
    <path class="cls-2"
        d="M156.52,81.48l4.66-13.77h2l4.66,13.77H166l-2.41-7.7c-.26-.77-.49-1.54-.72-2.3s-.45-1.55-.67-2.34h-.08c-.21.79-.43,1.57-.65,2.34s-.47,1.53-.72,2.3l-2.43,7.7Zm2.44-4.2V75.9h6.36v1.38Z" />
    <path class="cls-2"
        d="M169.75,81.48V67.71H172l2.6,7.37c.17.46.33.92.47,1.39s.3,1,.45,1.47h.09c.15-.52.3-1,.44-1.47s.29-.93.44-1.39l2.6-7.37h2.19V81.48H179.6V73.9c0-.4,0-.86,0-1.36s.06-1,.1-1.5.07-1,.11-1.36h-.08L178.7,73l-2.59,7.12h-1.28L172.25,73l-1.07-3.32h-.08c0,.41.08.86.11,1.36s.07,1,.1,1.5,0,1,0,1.36v7.58Z" />
    <path class="cls-2" d="M185,81.48V67.71h1.74V81.48Z" />
    <path class="cls-2"
        d="M195.77,81.74a5.63,5.63,0,0,1-5.25-3.3,8.68,8.68,0,0,1-.78-3.84,9,9,0,0,1,.46-3,6.38,6.38,0,0,1,1.29-2.25,5.47,5.47,0,0,1,1.94-1.42,6,6,0,0,1,2.42-.48,4.71,4.71,0,0,1,2.22.5,5.13,5.13,0,0,1,1.56,1.2l-.94,1.07a4,4,0,0,0-1.25-.92,3.78,3.78,0,0,0-1.56-.32,3.87,3.87,0,0,0-2.26.68,4.49,4.49,0,0,0-1.52,1.93,7.26,7.26,0,0,0-.55,3,7.8,7.8,0,0,0,.52,3,4.32,4.32,0,0,0,1.52,1.94,4.25,4.25,0,0,0,4,.31,4.3,4.3,0,0,0,1.4-1.08l.92,1a6.11,6.11,0,0,1-1.83,1.46A5.12,5.12,0,0,1,195.77,81.74Z" />
    <path class="cls-2"
        d="M205.85,81.74a6.41,6.41,0,0,1-2.69-.56,7.13,7.13,0,0,1-2.14-1.5l1-1.14a5.35,5.35,0,0,0,3.86,1.66,3.21,3.21,0,0,0,2.12-.62,2,2,0,0,0,.76-1.62,1.86,1.86,0,0,0-.31-1.14,2.39,2.39,0,0,0-.82-.71c-.34-.2-.73-.39-1.16-.59l-2-.86a7.89,7.89,0,0,1-1.32-.74,3.67,3.67,0,0,1-1.06-1.12,3.16,3.16,0,0,1-.42-1.69,3.3,3.3,0,0,1,.56-1.88,3.76,3.76,0,0,1,1.53-1.3,5,5,0,0,1,2.24-.47,5.64,5.64,0,0,1,2.31.46,5.33,5.33,0,0,1,1.76,1.2l-.94,1.13a5.68,5.68,0,0,0-1.43-.91A4,4,0,0,0,206,69a2.92,2.92,0,0,0-1.86.55,1.75,1.75,0,0,0-.7,1.47,1.69,1.69,0,0,0,.33,1.07,2.72,2.72,0,0,0,.87.69c.36.18.72.36,1.09.52l1.95.84a8.43,8.43,0,0,1,1.46.82,3.52,3.52,0,0,1,1,1.16,4,4,0,0,1-.19,3.68,3.83,3.83,0,0,1-1.62,1.42A5.6,5.6,0,0,1,205.85,81.74Z" />
</svg>